<svg width="46" height="46" viewBox="0 0 46 46" fill="none" xmlns="http://www.w3.org/2000/svg">
<g clip-path="url(#clip0_5511_149)">
<path d="M44.471 42.9103H43.0636V16.8741C43.0636 16.1454 42.4729 15.5547 41.7442 15.5547H36.4666C35.7379 15.5547 35.1472 16.1454 35.1472 16.8741V42.9103H32.5084V25.6701C32.5084 24.9415 31.9177 24.3507 31.189 24.3507H25.9114C25.1827 24.3507 24.592 24.9415 24.592 25.6701V42.9103H21.9532V30.5079C21.9532 29.7793 21.3624 29.1885 20.6338 29.1885H15.3562C14.6275 29.1885 14.0368 29.7793 14.0368 30.5079V42.9103H11.3979V33.6745C11.3979 32.9458 10.8072 32.3551 10.0785 32.3551H4.80093C4.07227 32.3551 3.48153 32.9458 3.48153 33.6745V42.9103H2.07416C1.3455 42.9103 0.754761 43.5011 0.754761 44.2297C0.754761 44.9584 1.3455 45.5491 2.07416 45.5491H44.471C45.1997 45.5491 45.7904 44.9584 45.7904 44.2297C45.7904 43.5011 45.1997 42.9103 44.471 42.9103Z" fill="#1CBBB4"/>
<path d="M2.07416 28.8658C10.3088 28.8658 19.2387 25.9084 27.219 20.5384C33.469 16.3326 38.679 10.9597 41.9152 5.45803L43.1966 10.2402C43.3546 10.8297 44.1173 11.339 44.8125 11.1731C45.5213 11.004 45.934 10.261 45.7454 9.55715L43.5849 1.49384C43.3962 0.790071 42.6731 0.37226 41.969 0.560934L33.9056 2.7215C33.2018 2.91009 32.7842 3.63356 32.9727 4.33742C33.1614 5.04128 33.8845 5.45909 34.5887 5.27032L39.7831 3.87844C36.7639 9.12492 31.7741 14.2924 25.7458 18.349C18.1963 23.4293 9.78959 26.227 2.07416 26.227C1.3455 26.227 0.754761 26.8178 0.754761 27.5464C0.754761 28.2751 1.3455 28.8658 2.07416 28.8658Z" fill="#1CBBB4"/>
</g>
<defs>
<clipPath id="clip0_5511_149">
<rect width="45.0362" height="45.0362" fill="white" transform="translate(0.754761 0.519531)"/>
</clipPath>
</defs>
</svg>
